HIERARCHY
ROOT Hips
{
    OFFSET 0.000000 0.000000 0.000000
    CHANNELS 6 Xposition Yposition Zposition Zrotation Xrotation Yrotation
    JOINT Spine
    {
        OFFSET -0.000000 14.517291 0.000000
        CHANNELS 3 Zrotation Xrotation Yrotation
        JOINT Spine1
        {
            OFFSET -0.000000 37.558300 0.000000
            CHANNELS 3 Zrotation Xrotation Yrotation
            JOINT Neck
            {
                OFFSET -0.000000 37.404057 3.400369
                CHANNELS 3 Zrotation Xrotation Yrotation
                JOINT Head
                {
                    OFFSET -0.000000 24.785618 -3.540803
                    CHANNELS 3 Zrotation Xrotation Yrotation
                    End Site
                    {
                        OFFSET -0.000000 35.408028 0.000000
                    }
                }
            }
            JOINT LeftShoulder
            {
                OFFSET 6.992933 33.973492 -0.192664
                CHANNELS 3 Zrotation Xrotation Yrotation
                JOINT LeftArm
                {
                    OFFSET 21.527611 0.000000 0.000000
                    CHANNELS 3 Zrotation Xrotation Yrotation
                    JOINT LeftForeArm
                    {
                        OFFSET 56.353916 0.000000 0.000000
                        CHANNELS 3 Zrotation Xrotation Yrotation
                        JOINT LeftHand
                        {
                            OFFSET 47.774071 0.000000 0.000000
                            CHANNELS 3 Zrotation Xrotation Yrotation
                            End Site
                            {
                                OFFSET 26.556021 0.000000 0.000000
                            }
                        }
                    }
                }
            }
            JOINT RightShoulder
            {
                OFFSET -7.065357 33.973492 -0.192664
                CHANNELS 3 Zrotation Xrotation Yrotation
                JOINT RightArm
                {
                    OFFSET -21.527611 0.000000 0.000000
                    CHANNELS 3 Zrotation Xrotation Yrotation
                    JOINT RightForeArm
                    {
                        OFFSET -56.353916 0.000000 0.000000
                        CHANNELS 3 Zrotation Xrotation Yrotation
                        JOINT RightHand
                        {
                            OFFSET -47.774071 0.000000 0.000000
                            CHANNELS 3 Zrotation Xrotation Yrotation
                            End Site
                            {
                                OFFSET -26.556021 0.000000 0.000000
                            }
                        }
                    }
                }
            }
        }
    }
    JOINT LeftUpLeg
    {
        OFFSET 17.704014 0.000000 0.000000
        CHANNELS 3 Zrotation Xrotation Yrotation
        JOINT LeftLeg
        {
            OFFSET -0.000000 -81.181816 0.000000
            CHANNELS 3 Zrotation Xrotation Yrotation
            JOINT LeftFoot
            {
                OFFSET -0.000000 -62.821102 0.000000
                CHANNELS 3 Zrotation Xrotation Yrotation
                JOINT LeftToeBase
                {
                    OFFSET -0.000000 -11.507608 26.556021
                    CHANNELS 3 Zrotation Xrotation Yrotation
                    End Site
                    {
                        OFFSET -0.000000 0.000000 7.081605
                    }
                }
            }
        }
    }
    JOINT RightUpLeg
    {
        OFFSET -17.704014 0.000000 0.000000
        CHANNELS 3 Zrotation Xrotation Yrotation
        JOINT RightLeg
        {
            OFFSET -0.000000 -81.181816 0.000000
            CHANNELS 3 Zrotation Xrotation Yrotation
            JOINT RightFoot
            {
                OFFSET -0.000000 -62.821102 0.000000
                CHANNELS 3 Zrotation Xrotation Yrotation
                JOINT RightToeBase
                {
                    OFFSET -0.000000 -11.507608 26.556021
                    CHANNELS 3 Zrotation Xrotation Yrotation
                    End Site
                    {
                        OFFSET -0.000000 0.000000 7.081605
                    }
                }
            }
        }
    }
}
MOTION
Frames:    10
Frame Time:    0.008333
36.975307    157.477676    -95.237991    -4.917964    -1.759321    56.010651    3.097986    -3.091766    12.110585    -6.253541    -0.696202    3.968113    -0.161761    7.080181    -11.556158    14.865680    -8.122978    -8.885584    15.989155    -11.398663    -2.500235    -9.540849    -27.271103    -11.186220    -9.095692    -52.382679    -94.343727    -28.076200    -51.722111    -41.652473    -16.857584    4.570326    -0.962292    16.771984    22.644388    18.078278    14.809042    16.331337    -0.093016    -11.350197    14.404736    20.021185    12.786113    -14.220957    -16.240271    -11.111344    38.662716    -24.604944    6.956130    -24.778309    40.182465    0.000000    0.000000    0.000000    -17.821623    -17.513083    -23.885996    11.966207    31.697010    -16.013767    1.786980    -0.825698    -22.983809    0.000000    0.000000    0.000000    
37.088913    157.408508    -95.533524    -4.891791    -1.667246    54.550671    3.064280    -3.145804    11.840601    -6.252295    -0.571316    3.884997    0.230348    6.722577    -10.963106    14.480688    -7.788367    -8.421950    16.029900    -11.354439    -2.625216    -9.637407    -27.208652    -11.456117    -9.094528    -52.558449    -94.245155    -27.958174    -51.932983    -41.572777    -16.698576    4.536266    -1.127970    16.590492    21.982235    18.209566    15.351405    16.417004    -0.443981    -11.286593    14.540013    20.106169    12.764310    -13.778801    -15.548783    -11.242200    38.674500    -24.161472    7.190459    -25.004393    40.486252    0.000000    0.000000    0.000000    -17.760160    -18.006256    -23.099434    12.048281    31.574972    -15.832475    1.632629    -0.569787    -22.581528    0.000000    0.000000    0.000000    
37.199574    157.335815    -95.813690    -4.865114    -1.582072    53.101547    3.004810    -3.182557    11.550788    -6.246730    -0.502585    3.792628    0.726038    6.424356    -10.340090    14.016218    -7.484293    -7.949526    16.110958    -11.256404    -2.768239    -9.792693    -27.338982    -11.771897    -9.216010    -52.556072    -94.253899    -27.654219    -52.137985    -41.292526    -16.510223    4.511235    -1.279670    16.544724    21.550087    18.168110    15.436511    16.630100    -0.537060    -11.114256    14.802681    20.052038    12.737714    -13.347100    -14.822960    -11.330364    38.710503    -23.840233    7.414866    -25.240938    40.858696    0.000000    0.000000    0.000000    -17.684164    -18.496641    -22.307049    12.154080    31.464149    -15.511373    1.459751    -0.320793    -22.336006    0.000000    0.000000    0.000000    
37.301739    157.257721    -96.139267    -4.856975    -1.457358    51.616943    2.945888    -3.257593    11.277027    -6.214764    -0.415949    3.706325    1.169576    6.139697    -9.715794    13.559948    -7.200145    -7.467332    16.120434    -11.217935    -2.975055    -9.991132    -27.351639    -12.072258    -9.242245    -52.683632    -94.269241    -27.491396    -52.365318    -41.063747    -16.322535    4.470115    -1.349534    16.394331    21.546780    18.070024    15.298274    16.586517    -0.505886    -10.880042    14.798427    20.009958    12.694789    -12.952105    -14.119935    -11.487504    38.721275    -23.744263    7.807959    -25.429798    41.560040    0.000000    0.000000    0.000000    -17.625444    -19.064201    -21.439405    12.295403    31.344845    -15.312889    1.295401    -0.028275    -22.052958    0.000000    0.000000    0.000000    
37.408672    157.180023    -96.422768    -4.837223    -1.362366    50.142582    2.866931    -3.335191    10.963105    -6.163069    -0.319530    3.607414    1.645459    5.898498    -9.057682    13.079123    -6.943398    -6.954583    16.143148    -11.140520    -3.141641    -10.153710    -27.677090    -12.406331    -9.444962    -52.451218    -94.277687    -27.323204    -52.331947    -40.930866    -15.993381    4.454370    -1.598914    15.980254    21.649160    18.203915    15.042859    16.620930    -0.384933    -10.544897    14.870686    20.048801    12.665790    -12.524044    -13.295046    -11.555045    38.726261    -23.410540    8.026561    -25.664354    41.872349    0.000000    0.000000    0.000000    -17.516857    -19.585880    -20.615719    12.391222    31.223211    -15.057977    1.124576    0.247401    -21.724321    0.000000    0.000000    0.000000    
37.500187    157.104401    -96.700035    -4.822365    -1.267956    48.644936    2.766683    -3.419172    10.661440    -6.111172    -0.200310    3.513893    2.207499    5.673557    -8.410254    12.542601    -6.726298    -6.468349    16.221951    -11.085137    -3.393284    -10.296989    -27.852482    -12.611271    -9.374780    -52.406815    -94.123123    -27.254610    -52.244545    -40.907028    -15.894395    4.375958    -1.696565    15.965607    21.075756    18.183681    15.276265    16.937654    -0.577401    -10.793260    15.158554    20.203558    12.639127    -12.104399    -12.496554    -11.658389    38.726585    -22.955669    8.222041    -25.886713    42.122162    0.000000    0.000000    0.000000    -17.371658    -20.141134    -19.747953    12.467350    31.116846    -14.764497    0.998402    0.536315    -21.462715    0.000000    0.000000    0.000000    
37.589855    157.019684    -96.953987    -4.804535    -1.210429    47.140827    2.695307    -3.409257    10.279967    -6.071249    -0.271264    3.384071    2.710611    5.607292    -7.681123    12.076618    -6.518379    -5.872620    16.306152    -11.041521    -3.585022    -10.432773    -27.058983    -12.856131    -8.709003    -53.354759    -93.695450    -27.452631    -52.639538    -41.079693    -15.753544    4.464030    -1.642609    15.848543    20.545654    18.181250    15.362643    17.151133    -0.672620    -11.049568    15.317826    20.457924    12.678709    -11.609181    -11.658640    -11.786249    38.728806    -22.506134    8.432411    -26.223917    42.312973    0.000000    0.000000    0.000000    -17.153496    -20.661739    -18.994774    12.425466    31.009596    -14.480205    0.836260    0.834434    -20.985289    0.000000    0.000000    0.000000    
37.668591    156.933090    -97.195442    -4.759689    -1.195682    45.655865    2.590884    -3.456306    9.945029    -5.938073    -0.077814    3.283723    3.239757    5.340702    -6.960999    11.512973    -6.296780    -5.314641    16.224953    -11.026911    -3.906723    -10.483053    -27.723577    -13.101773    -9.031240    -52.841927    -93.695374    -27.272644    -52.399376    -40.938484    -15.633178    4.322960    -1.793047    15.685658    19.972683    18.226736    15.561015    17.464033    -0.822003    -11.303295    15.601394    20.544773    12.721304    -11.120509    -10.827014    -11.960981    38.711208    -22.030779    8.640330    -26.456913    42.532715    0.000000    0.000000    0.000000    -16.971018    -21.071272    -17.947113    12.742042    30.769503    -14.264832    0.616130    1.117681    -20.826601    0.000000    0.000000    0.000000    
37.765877    156.849365    -97.449615    -4.757894    -1.071854    44.099472    2.475920    -3.591616    9.651226    -5.870528    0.027820    3.191666    3.822551    5.215193    -6.239078    10.940937    -6.127796    -4.752974    16.227495    -10.846149    -4.103251    -10.731107    -28.012985    -13.678364    -8.677782    -52.938866    -93.240761    -27.353296    -52.192154    -40.980007    -15.476236    4.286454    -1.942906    15.479909    19.437546    18.366297    15.740368    17.933722    -1.092298    -11.610199    16.038631    20.745216    12.718729    -10.703016    -9.893773    -12.139679    38.654633    -21.520065    8.844512    -26.659210    42.716427    0.000000    0.000000    0.000000    -16.782299    -21.670115    -17.026978    12.840469    30.652937    -14.045727    0.469533    1.427364    -20.466429    0.000000    0.000000    0.000000    
37.856236    156.777679    -97.679123    -4.719585    -1.000196    42.563675    2.324489    -3.675650    9.249218    -5.738111    0.138801    3.064509    4.453575    5.185170    -5.443834    10.245061    -6.072622    -4.130097    16.184381    -10.783457    -4.324066    -10.825060    -28.025673    -13.969519    -8.317553    -53.089321    -92.852516    -27.324112    -52.049370    -41.154709    -15.378585    4.136247    -1.954181    15.305142    19.018852    18.463343    15.698317    17.231186    -0.906651    -10.640447    15.415854    21.401632    12.739634    -10.235218    -8.915668    -12.225655    38.634296    -21.269630    8.989077    -26.879576    42.921791    0.000000    0.000000    0.000000    -16.548927    -22.179493    -16.018782    12.974200    30.486507    -13.817156    0.325899    1.732490    -20.184910    0.000000    0.000000    0.000000    
